<?xml version="1.0" encoding="UTF-8" standalone="no"?>
<!-- Created with Inkscape (http://www.inkscape.org/) -->

<svg
   width="39.536812mm"
   height="59.192795mm"
   viewBox="0 0 149.43047 223.7208"
   version="1.1"
   id="svg1"
   inkscape:version="1.3 (1:1.3+202307231459+0e150ed6c4)"
   sodipodi:docname="1.svg"
   xmlns:inkscape="http://www.inkscape.org/namespaces/inkscape"
   xmlns:sodipodi="http://sodipodi.sourceforge.net/DTD/sodipodi-0.dtd"
   xmlns="http://www.w3.org/2000/svg"
   xmlns:svg="http://www.w3.org/2000/svg">
  <sodipodi:namedview
     id="namedview1"
     pagecolor="#505050"
     bordercolor="#ffffff"
     borderopacity="1"
     inkscape:showpageshadow="0"
     inkscape:pageopacity="0"
     inkscape:pagecheckerboard="1"
     inkscape:deskcolor="#d1d1d1"
     inkscape:document-units="mm"
     inkscape:zoom="1.0507738"
     inkscape:cx="495.82508"
     inkscape:cy="236.01654"
     inkscape:window-width="1876"
     inkscape:window-height="1016"
     inkscape:window-x="44"
     inkscape:window-y="27"
     inkscape:window-maximized="1"
     inkscape:current-layer="layer1"
     showgrid="false" />
  <defs
     id="defs1">
    <rect
       x="78.643639"
       y="75.310242"
       width="901.66302"
       height="227.90079"
       id="rect1" />
  </defs>
  <g
     inkscape:label="Layer 1"
     inkscape:groupmode="layer"
     id="layer1"
     transform="translate(-66.070245,-84.706087)">
    <path
       d="m 102.45703,229.24805 h 30.9375 V 122.4668 l -33.656249,6.75 v -17.25 l 33.468749,-6.75 h 18.9375 v 124.03125 h 30.9375 v 15.9375 h -80.625 z M 339.73828,169.7168 q 13.59375,2.90625 21.1875,12.09375 7.6875,9.1875 7.6875,22.6875 0,20.71875 -14.25,32.0625 -14.25,11.34375 -40.5,11.34375 -8.8125,0 -18.1875,-1.78125 -9.28125,-1.6875 -19.21875,-5.15625 v -18.28125 q 7.875,4.59375 17.25,6.9375 9.375,2.34375 19.59375,2.34375 17.8125,0 27.09375,-7.03125 9.375,-7.03125 9.375,-20.4375 0,-12.375 -8.71875,-19.3125 -8.625,-7.03125 -24.09375,-7.03125 h -16.3125 v -15.5625 h 17.0625 q 13.96875,0 21.375,-5.53125 7.40625,-5.625 7.40625,-16.125 0,-10.78125 -7.6875,-16.5 -7.59375,-5.8125 -21.84375,-5.8125 -7.78125,0 -16.6875,1.6875 -8.90625,1.6875 -19.59375,5.25 v -16.875 q 10.78125,-3 20.15625,-4.5 9.46875,-1.5 17.8125,-1.5 21.5625,0 34.125,9.84375 12.5625,9.75 12.5625,26.4375 0,11.625 -6.65625,19.6875 -6.65625,7.96875 -18.9375,11.0625 z m 121.03125,-64.5 h 90 v 8.0625 l -50.8125,131.90625 h -19.78125 l 47.8125,-124.03125 h -67.21875 z m 188.53125,137.0625 v -17.25 q 7.125,3.375 14.4375,5.15625 7.3125,1.78125 14.34375,1.78125 18.75,0 28.59375,-12.5625 9.9375,-12.65625 11.34375,-38.34375 -5.4375,8.0625 -13.78125,12.375 -8.34375,4.3125 -18.46875,4.3125 -21,0 -33.28125,-12.65625 -12.1875,-12.75 -12.1875,-34.78125 0,-21.5625 12.75,-34.59375 12.75,-13.03125 33.9375,-13.03125 24.28125,0 37.03125,18.65625 12.84375,18.5625 12.84375,54 0,33.09375 -15.75,52.875 -15.65625,19.6875 -42.1875,19.6875 -7.125,0 -14.4375,-1.40625 -7.3125,-1.40625 -15.1875,-4.21875 z m 37.6875,-59.34375 q 12.75,0 20.15625,-8.71875 7.5,-8.71875 7.5,-23.90625 0,-15.09375 -7.5,-23.8125 -7.40625,-8.8125 -20.15625,-8.8125 -12.75,0 -20.25,8.8125 -7.40625,8.71875 -7.40625,23.8125 0,15.1875 7.40625,23.90625 7.5,8.71875 20.25,8.71875 z"
       id="text1"
       style="font-size:192px;white-space:pre;fill:#e6e6e6;stroke:#4d4d4d;stroke-width:0.8"
       aria-label="1 3 7 9" />
    <rect
       style="fill:#e6e6e6;stroke:#4d4d4d;stroke-width:0.8"
       id="rect2"
       width="109.35656"
       height="21.561781"
       x="89.140778"
       y="273.58923" />
    <rect
       style="fill:#e6e6e6;stroke:#4d4d4d;stroke-width:0.8"
       id="rect3-5"
       width="109.35656"
       height="21.561781"
       x="270.83911"
       y="271.93271" />
    <rect
       style="fill:#e6e6e6;stroke:#4d4d4d;stroke-width:0.8"
       id="rect3-2"
       width="109.35656"
       height="21.561781"
       x="445.81775"
       y="274.40884" />
    <rect
       style="fill:#e6e6e6;stroke:#4d4d4d;stroke-width:0.8"
       id="rect3-7"
       width="109.35656"
       height="21.561781"
       x="638.10052"
       y="273.78955" />
    <rect
       style="fill:#000000;stroke:#4d4d4d;stroke-width:0.8"
       id="rect3"
       width="25.394363"
       height="19.261404"
       x="90.069946"
       y="274.71082" />
    <rect
       style="fill:#000000;stroke:#4d4d4d;stroke-width:0.8"
       id="rect3-6"
       width="25.394363"
       height="19.261404"
       x="297.49811"
       y="273.49533" />
    <rect
       style="fill:#000000;stroke:#4d4d4d;stroke-width:0.8"
       id="rect3-61"
       width="25.394363"
       height="19.261404"
       x="502.72647"
       y="275.93445" />
    <rect
       style="fill:#000000;stroke:#4d4d4d;stroke-width:0.8"
       id="rect3-20"
       width="25.394363"
       height="19.261404"
       x="720.44495"
       y="275.23901" />
    <rect
       style="fill:#e6e6e6;stroke:#4d4d4d;stroke-width:0.8"
       id="rect4"
       width="148.63048"
       height="222.92081"
       x="492.36792"
       y="360.75128" />
  </g>
</svg>
